<svg width="16" height="18" viewBox="0 0 16 18" fill="none" xmlns="http://www.w3.org/2000/svg">
<path d="M14.0491 9.12153V9.12157L9.87793 13.0609L15.8048 18V7.46338L14.0491 9.12153Z" fill="#D80027"/>
<path d="M0 7.46387V18.0005L5.92683 13.0614L0 7.46387Z" fill="#FF5023"/>
<path d="M5.92683 13.061L0 18.0001H7.90244V14.9269L5.92683 13.061Z" fill="#D80027"/>
<path d="M7.90234 14.9269V18.0001H15.8048L9.87795 13.061L7.90234 14.9269Z" fill="#A2001D"/>
<path d="M1.75579 5.80518L0 7.46341H1.75566L1.75579 5.80518Z" fill="#FF5023"/>
<path d="M15.8049 7.4635L14.0491 5.80518L14.0492 7.4635H15.8049Z" fill="#FF5023"/>
<path d="M7.90246 0L5.10205 2.64481L10.6958 2.63818L7.90246 0Z" fill="#FF5023"/>
<path d="M14.0494 9.12154L15.8051 7.46338H14.0493L14.0494 9.12154Z" fill="#A2001D"/>
<path d="M7.90244 14.9273L1.75548 9.12184L1.75566 7.46387H0L5.92683 13.0614L7.90244 14.9273Z" fill="#A2001D"/>
<path d="M1.75513 9.12152L7.90208 14.927L9.87769 13.0611L14.0489 9.12174V9.12169L14.0488 7.46354L14.0486 5.80522L14.0484 2.63428L10.6954 2.63832L5.10168 2.64495L1.75574 2.64894L1.75543 5.80531L1.7553 7.46354L1.75513 9.12152ZM3.95086 7.90257H11.8533V9.21964H3.95086V7.90257ZM3.95086 6.5855V5.26842H11.8533V6.5855H3.95086Z" fill="#DEDDE0"/>
<path d="M11.8536 5.26855H3.95117V6.58562H11.8536V5.26855Z" fill="white"/>
<path d="M11.8536 7.90234H3.95117V9.21942H11.8536V7.90234Z" fill="white"/>
</svg>
